<?xml version="1.0" encoding="UTF-8"?>
<svg width="1734px" height="941px" viewBox="0 0 1734 941" version="1.1" xmlns="http://www.w3.org/2000/svg" xmlns:xlink="http://www.w3.org/1999/xlink" style="background: #FFFFFF;">
    <!-- Generator: Sketch 39.1 (31720) - http://www.bohemiancoding.com/sketch -->
    <title>hero</title>
    <desc>Created with Sketch.</desc>
    <defs>
        <polygon id="path-1" points="1275.06245 338.562446 1239 349.124892 1249.56245 313.062446 1239 277 1275.06245 287.562446 1311.12489 277 1300.56245 313.062446 1311.12489 349.124892"></polygon>
        <mask id="mask-2" maskContentUnits="userSpaceOnUse" maskUnits="objectBoundingBox" x="0" y="0" width="72.1248917" height="72.1248917" fill="white">
            <use xlink:href="#path-1"></use>
        </mask>
        <polygon id="path-3" points="580.062446 236.562446 544 247.124892 554.562446 211.062446 544 175 580.062446 185.562446 616.124892 175 605.562446 211.062446 616.124892 247.124892"></polygon>
        <mask id="mask-4" maskContentUnits="userSpaceOnUse" maskUnits="objectBoundingBox" x="0" y="0" width="72.1248917" height="72.1248917" fill="white">
            <use xlink:href="#path-3"></use>
        </mask>
        <polygon id="path-5" points="1545.06245 68.5624458 1509 79.1248917 1519.56245 43.0624458 1509 7 1545.06245 17.5624458 1581.12489 7 1570.56245 43.0624458 1581.12489 79.1248917"></polygon>
        <mask id="mask-6" maskContentUnits="userSpaceOnUse" maskUnits="objectBoundingBox" x="0" y="0" width="72.1248917" height="72.1248917" fill="white">
            <use xlink:href="#path-5"></use>
        </mask>
        <polygon id="path-7" points="1070.06245 166.562446 1034 177.124892 1044.56245 141.062446 1034 105 1070.06245 115.562446 1106.12489 105 1095.56245 141.062446 1106.12489 177.124892"></polygon>
        <mask id="mask-8" maskContentUnits="userSpaceOnUse" maskUnits="objectBoundingBox" x="0" y="0" width="72.1248917" height="72.1248917" fill="white">
            <use xlink:href="#path-7"></use>
        </mask>
        <polygon id="path-9" points="354 62.5 317.937554 73.0624458 328.5 37 317.937554 0.937554159 354 11.5 390.062446 0.937554159 379.5 37 390.062446 73.0624458"></polygon>
        <mask id="mask-10" maskContentUnits="userSpaceOnUse" maskUnits="objectBoundingBox" x="0" y="0" width="72.1248917" height="72.1248917" fill="white">
            <use xlink:href="#path-9"></use>
        </mask>
        <polygon id="path-11" points="45 308.5 8.93755416 319.062446 19.5 283 8.93755416 246.937554 45 257.5 81.0624458 246.937554 70.5 283 81.0624458 319.062446"></polygon>
        <mask id="mask-12" maskContentUnits="userSpaceOnUse" maskUnits="objectBoundingBox" x="0" y="0" width="72.1248917" height="72.1248917" fill="white">
            <use xlink:href="#path-11"></use>
        </mask>
        <polygon id="path-13" points="1428.06245 929.562446 1392 940.124892 1402.56245 904.062446 1392 868 1428.06245 878.562446 1464.12489 868 1453.56245 904.062446 1464.12489 940.124892"></polygon>
        <mask id="mask-14" maskContentUnits="userSpaceOnUse" maskUnits="objectBoundingBox" x="0" y="0" width="72.1248917" height="72.1248917" fill="white">
            <use xlink:href="#path-13"></use>
        </mask>
        <polygon id="path-15" points="741.062446 914.562446 705 925.124892 715.562446 889.062446 705 853 741.062446 863.562446 777.124892 853 766.562446 889.062446 777.124892 925.124892"></polygon>
        <mask id="mask-16" maskContentUnits="userSpaceOnUse" maskUnits="objectBoundingBox" x="0" y="0" width="72.1248917" height="72.1248917" fill="white">
            <use xlink:href="#path-15"></use>
        </mask>
        <polygon id="path-17" points="544 728.562446 507.937554 739.124892 518.5 703.062446 507.937554 667 544 677.562446 580.062446 667 569.5 703.062446 580.062446 739.124892"></polygon>
        <mask id="mask-18" maskContentUnits="userSpaceOnUse" maskUnits="objectBoundingBox" x="0" y="0" width="72.1248917" height="72.1248917" fill="white">
            <use xlink:href="#path-17"></use>
        </mask>
        <polygon id="path-19" points="1530.06245 638.562446 1494 649.124892 1504.56245 613.062446 1494 577 1530.06245 587.562446 1566.12489 577 1555.56245 613.062446 1566.12489 649.124892"></polygon>
        <mask id="mask-20" maskContentUnits="userSpaceOnUse" maskUnits="objectBoundingBox" x="0" y="0" width="72.1248917" height="72.1248917" fill="white">
            <use xlink:href="#path-19"></use>
        </mask>
        <polygon id="path-21" points="998.062446 785.562446 962 796.124892 972.562446 760.062446 962 724 998.062446 734.562446 1034.12489 724 1023.56245 760.062446 1034.12489 796.124892"></polygon>
        <mask id="mask-22" maskContentUnits="userSpaceOnUse" maskUnits="objectBoundingBox" x="0" y="0" width="72.1248917" height="72.1248917" fill="white">
            <use xlink:href="#path-21"></use>
        </mask>
        <polygon id="path-23" points="1326 697 1300.54416 704.455844 1308 679 1300.54416 653.544156 1326 661 1351.45584 653.544156 1344 679 1351.45584 704.455844"></polygon>
        <mask id="mask-24" maskContentUnits="userSpaceOnUse" maskUnits="objectBoundingBox" x="0" y="0" width="50.9116882" height="50.9116882" fill="white">
            <use xlink:href="#path-23"></use>
        </mask>
        <polygon id="path-25" points="1203 850 1177.54416 857.455844 1185 832 1177.54416 806.544156 1203 814 1228.45584 806.544156 1221 832 1228.45584 857.455844"></polygon>
        <mask id="mask-26" maskContentUnits="userSpaceOnUse" maskUnits="objectBoundingBox" x="0" y="0" width="50.9116882" height="50.9116882" fill="white">
            <use xlink:href="#path-25"></use>
        </mask>
        <polygon id="path-27" points="782 721 756.544156 728.455844 764 703 756.544156 677.544156 782 685 807.455844 677.544156 800 703 807.455844 728.455844"></polygon>
        <mask id="mask-28" maskContentUnits="userSpaceOnUse" maskUnits="objectBoundingBox" x="0" y="0" width="50.9116882" height="50.9116882" fill="white">
            <use xlink:href="#path-27"></use>
        </mask>
        <polygon id="path-29" points="1476 409 1450.54416 416.455844 1458 391 1450.54416 365.544156 1476 373 1501.45584 365.544156 1494 391 1501.45584 416.455844"></polygon>
        <mask id="mask-30" maskContentUnits="userSpaceOnUse" maskUnits="objectBoundingBox" x="0" y="0" width="50.9116882" height="50.9116882" fill="white">
            <use xlink:href="#path-29"></use>
        </mask>
        <polygon id="path-31" points="1626 799 1600.54416 806.455844 1608 781 1600.54416 755.544156 1626 763 1651.45584 755.544156 1644 781 1651.45584 806.455844"></polygon>
        <mask id="mask-32" maskContentUnits="userSpaceOnUse" maskUnits="objectBoundingBox" x="0" y="0" width="50.9116882" height="50.9116882" fill="white">
            <use xlink:href="#path-31"></use>
        </mask>
        <polygon id="path-33" points="426 871 400.544156 878.455844 408 853 400.544156 827.544156 426 835 451.455844 827.544156 444 853 451.455844 878.455844"></polygon>
        <mask id="mask-34" maskContentUnits="userSpaceOnUse" maskUnits="objectBoundingBox" x="0" y="0" width="50.9116882" height="50.9116882" fill="white">
            <use xlink:href="#path-33"></use>
        </mask>
        <polygon id="path-35" points="1296 79 1270.54416 86.4558441 1278 61 1270.54416 35.5441559 1296 43 1321.45584 35.5441559 1314 61 1321.45584 86.4558441"></polygon>
        <mask id="mask-36" maskContentUnits="userSpaceOnUse" maskUnits="objectBoundingBox" x="0" y="0" width="50.9116882" height="50.9116882" fill="white">
            <use xlink:href="#path-35"></use>
        </mask>
        <polygon id="path-37" points="705 71 679.544156 78.4558441 687 53 679.544156 27.5441559 705 35 730.455844 27.5441559 723 53 730.455844 78.4558441"></polygon>
        <mask id="mask-38" maskContentUnits="userSpaceOnUse" maskUnits="objectBoundingBox" x="0" y="0" width="50.9116882" height="50.9116882" fill="white">
            <use xlink:href="#path-37"></use>
        </mask>
        <polygon id="path-39" points="1656 259 1630.54416 266.455844 1638 241 1630.54416 215.544156 1656 223 1681.45584 215.544156 1674 241 1681.45584 266.455844"></polygon>
        <mask id="mask-40" maskContentUnits="userSpaceOnUse" maskUnits="objectBoundingBox" x="0" y="0" width="50.9116882" height="50.9116882" fill="white">
            <use xlink:href="#path-39"></use>
        </mask>
        <polygon id="path-41" points="216 184 190.544156 191.455844 198 166 190.544156 140.544156 216 148 241.455844 140.544156 234 166 241.455844 191.455844"></polygon>
        <mask id="mask-42" maskContentUnits="userSpaceOnUse" maskUnits="objectBoundingBox" x="0" y="0" width="50.9116882" height="50.9116882" fill="white">
            <use xlink:href="#path-41"></use>
        </mask>
        <polygon id="path-43" points="336 649 310.544156 656.455844 318 631 310.544156 605.544156 336 613 361.455844 605.544156 354 631 361.455844 656.455844"></polygon>
        <mask id="mask-44" maskContentUnits="userSpaceOnUse" maskUnits="objectBoundingBox" x="0" y="0" width="50.9116882" height="50.9116882" fill="white">
            <use xlink:href="#path-43"></use>
        </mask>
        <polygon id="path-45" points="854 273 828.544156 280.455844 836 255 828.544156 229.544156 854 237 879.455844 229.544156 872 255 879.455844 280.455844"></polygon>
        <mask id="mask-46" maskContentUnits="userSpaceOnUse" maskUnits="objectBoundingBox" x="0" y="0" width="50.9116882" height="50.9116882" fill="white">
            <use xlink:href="#path-45"></use>
        </mask>
        <polygon id="path-47" points="36 919 10.5441559 926.455844 18 901 10.5441559 875.544156 36 883 61.4558441 875.544156 54 901 61.4558441 926.455844"></polygon>
        <mask id="mask-48" maskContentUnits="userSpaceOnUse" maskUnits="objectBoundingBox" x="0" y="0" width="50.9116882" height="50.9116882" fill="white">
            <use xlink:href="#path-47"></use>
        </mask>
        <polygon id="path-49" points="156 439 130.544156 446.455844 138 421 130.544156 395.544156 156 403 181.455844 395.544156 174 421 181.455844 446.455844"></polygon>
        <mask id="mask-50" maskContentUnits="userSpaceOnUse" maskUnits="objectBoundingBox" x="0" y="0" width="50.9116882" height="50.9116882" fill="white">
            <use xlink:href="#path-49"></use>
        </mask>
        <polygon id="path-51" points="66 79 40.5441559 86.4558441 48 61 40.5441559 35.5441559 66 43 91.4558441 35.5441559 84 61 91.4558441 86.4558441"></polygon>
        <mask id="mask-52" maskContentUnits="userSpaceOnUse" maskUnits="objectBoundingBox" x="0" y="0" width="50.9116882" height="50.9116882" fill="white">
            <use xlink:href="#path-51"></use>
        </mask>
        <polygon id="path-53" points="366 392.5 329.937554 403.062446 340.5 367 329.937554 330.937554 366 341.5 402.062446 330.937554 391.5 367 402.062446 403.062446"></polygon>
        <mask id="mask-54" maskContentUnits="userSpaceOnUse" maskUnits="objectBoundingBox" x="0" y="0" width="72.1248917" height="72.1248917" fill="white">
            <use xlink:href="#path-53"></use>
        </mask>
        <polygon id="path-55" points="60 608.5 23.9375542 619.062446 34.5 583 23.9375542 546.937554 60 557.5 96.0624458 546.937554 85.5 583 96.0624458 619.062446"></polygon>
        <mask id="mask-56" maskContentUnits="userSpaceOnUse" maskUnits="objectBoundingBox" x="0" y="0" width="72.1248917" height="72.1248917" fill="white">
            <use xlink:href="#path-55"></use>
        </mask>
        <polygon id="path-57" points="174 773.5 137.937554 784.062446 148.5 748 137.937554 711.937554 174 722.5 210.062446 711.937554 199.5 748 210.062446 784.062446"></polygon>
        <mask id="mask-58" maskContentUnits="userSpaceOnUse" maskUnits="objectBoundingBox" x="0" y="0" width="72.1248917" height="72.1248917" fill="white">
            <use xlink:href="#path-57"></use>
        </mask>
    </defs>
    <g id="Page-1" stroke="none" stroke-width="1" fill="none" fill-rule="evenodd">
        <g id="hero">
            <g id="Group-3" transform="translate(534.000000, 150.000000)">
                <g id="Group" transform="translate(11.200000, 0.000000)"></g>
                <g id="Group-2" transform="translate(304.000000, 213.600000)" fill="#23CEB6">
                    <path d="M0.0768,82.4 L31.5264,82.4 C56.8704,82.4 74.3808,64.7744 74.3808,42.08 L74.3808,41.8496 C74.3808,19.1552 56.8704,1.76 31.5264,1.76 L0.0768,1.76 L0.0768,82.4 Z M17.8176,66.3872 L17.8176,17.7728 L31.5264,17.7728 C46.0416,17.7728 55.8336,27.7952 55.8336,42.08 L55.8336,42.3104 C55.8336,56.5952 46.0416,66.3872 31.5264,66.3872 L17.8176,66.3872 Z M128.9856,83.7824 C143.7312,83.7824 155.136,78.0224 163.4304,70.9952 L163.4304,35.9744 L128.4096,35.9744 L128.4096,51.296 L146.2656,51.296 L146.2656,62.816 C141.7728,66.0416 136.0128,67.6544 129.5616,67.6544 C115.2768,67.6544 105.1392,56.8256 105.1392,42.08 L105.1392,41.8496 C105.1392,28.1408 115.392,16.736 128.2944,16.736 C137.6256,16.736 143.1552,19.7312 149.376,24.9152 L160.5504,11.4368 C152.1408,4.2944 143.3856,0.3776 128.8704,0.3776 C104.448,0.3776 86.592,19.1552 86.592,42.08 L86.592,42.3104 C86.592,66.1568 103.872,83.7824 128.9856,83.7824 L128.9856,83.7824 Z M181.2864,82.4 L199.0272,82.4 L199.0272,1.76 L181.2864,1.76 L181.2864,82.4 Z M219.9936,82.4 L237.7344,82.4 L237.7344,1.76 L219.9936,1.76 L219.9936,82.4 Z M257.8944,82.4 L275.2896,82.4 L275.2896,30.0992 L297.7536,64.1984 L298.2144,64.1984 L320.9088,29.7536 L320.9088,82.4 L338.5344,82.4 L338.5344,1.76 L319.4112,1.76 L298.2144,35.8592 L277.0176,1.76 L257.8944,1.76 L257.8944,82.4 Z" id="DGIIM"></path>
                </g>
                <path d="M0,411.2 L140.974684,411.2 L140.974684,375.083944 L57.9683544,375.083944 L88.9936709,351.187606 C122.740506,325.118873 139.06962,309.369014 139.06962,277.597746 L139.06962,277.054648 C139.06962,241.48169 112.943038,218.4 73.4810127,218.4 C39.4620253,218.4 21.2278481,232.249014 2.44936709,257.774648 L31.8417722,281.399437 C45.9936709,264.020282 56.0632911,255.873803 70.7594937,255.873803 C85.7278481,255.873803 96.3417722,264.56338 96.3417722,280.584789 C96.3417722,296.334648 87.0886076,306.653521 63.4113924,326.20507 L0,378.070986 L0,411.2 Z M209.012658,303.12338 C232.962025,303.12338 251.196203,284.658028 251.196203,261.576338 L251.196203,261.033239 C251.196203,237.951549 233.506329,219.757746 209.556962,219.757746 C185.607595,219.757746 167.373418,238.223099 167.373418,261.304789 L167.373418,261.847887 C167.373418,284.929577 185.063291,303.12338 209.012658,303.12338 L209.012658,303.12338 Z M170.094937,335.980845 L248.474684,335.980845 L248.474684,318.058592 L170.094937,318.058592 L170.094937,335.980845 Z M209.556962,283.571831 C197.582278,283.571831 189.689873,273.252958 189.689873,261.576338 L189.689873,261.033239 C189.689873,249.35662 197.037975,239.309296 209.012658,239.309296 C220.987342,239.309296 228.879747,249.628169 228.879747,261.304789 L228.879747,261.847887 C228.879747,273.524507 221.531646,283.571831 209.556962,283.571831 L209.556962,283.571831 Z" id="2ยบ-" fill="#23CEB6"></path>
                <path d="M322.57515,410.87395 C330.045591,410.87395 335.194138,408.151261 338.929359,404.016807 L338.929359,409.865546 L353.769289,409.865546 L353.769289,378.504202 C353.769289,371.243697 351.952154,365.294118 347.914078,361.260504 C344.077906,357.428571 338.020792,355.210084 329.641784,355.210084 C320.45516,355.210084 314.59995,356.92437 308.643788,359.546218 L312.47996,371.243697 C317.426603,369.428571 321.565631,368.319328 327.420842,368.319328 C335.093186,368.319328 339.030311,371.848739 339.030311,378.201681 L339.030311,379.109244 C335.194138,377.798319 331.257014,376.890756 325.805611,376.890756 C312.984719,376.890756 304,382.336134 304,394.134454 L304,394.336134 C304,405.02521 312.379008,410.87395 322.57515,410.87395 L322.57515,410.87395 Z M327.218938,400.285714 C322.272295,400.285714 318.83993,397.865546 318.83993,393.731092 L318.83993,393.529412 C318.83993,388.689076 322.878006,386.067227 329.43988,386.067227 C333.1751,386.067227 336.607465,386.87395 339.232214,388.084034 L339.232214,390.806723 C339.232214,396.352941 334.386523,400.285714 327.218938,400.285714 L327.218938,400.285714 Z M366.993988,426 L382.338677,426 L382.338677,402.806723 C385.972946,407.142857 391.020541,410.87395 399.197645,410.87395 C412.018537,410.87395 423.82991,400.991597 423.82991,382.941176 L423.82991,382.739496 C423.82991,364.689076 411.816633,354.806723 399.197645,354.806723 C391.222445,354.806723 386.073898,358.537815 382.338677,363.579832 L382.338677,355.815126 L366.993988,355.815126 L366.993988,426 Z M395.260521,397.865546 C388.092936,397.865546 382.136774,391.915966 382.136774,382.941176 L382.136774,382.739496 C382.136774,373.764706 388.092936,367.815126 395.260521,367.815126 C402.428106,367.815126 408.48522,373.764706 408.48522,382.739496 L408.48522,382.941176 C408.48522,392.016807 402.428106,397.865546 395.260521,397.865546 L395.260521,397.865546 Z M453.105962,410.87395 C460.879259,410.87395 465.422094,406.739496 468.955411,402.201681 L468.955411,409.865546 L484.3001,409.865546 L484.3001,355.815126 L468.955411,355.815126 L468.955411,385.966387 C468.955411,393.226891 465.22019,396.957983 459.36498,396.957983 C453.50977,396.957983 450.077405,393.226891 450.077405,385.966387 L450.077405,355.815126 L434.732715,355.815126 L434.732715,390.806723 C434.732715,403.210084 441.496493,410.87395 453.105962,410.87395 L453.105962,410.87395 Z M498.029559,409.865546 L513.374248,409.865546 L513.374248,379.714286 C513.374248,372.453782 517.109469,368.722689 522.964679,368.722689 C528.81989,368.722689 532.252255,372.453782 532.252255,379.714286 L532.252255,409.865546 L547.596944,409.865546 L547.596944,374.87395 C547.596944,362.470588 540.833166,354.806723 529.223697,354.806723 C521.450401,354.806723 516.907565,358.941176 513.374248,363.478992 L513.374248,355.815126 L498.029559,355.815126 L498.029559,409.865546 Z M579.19489,410.773109 C584.343437,410.773109 588.078657,409.563025 591.309118,407.647059 L591.309118,395.344538 C589.088176,396.554622 586.564379,397.260504 583.737725,397.260504 C580.305361,397.260504 578.791082,395.546218 578.791082,392.016807 L578.791082,368.92437 L591.511022,368.92437 L591.511022,355.815126 L578.791082,355.815126 L578.791082,342 L563.446393,342 L563.446393,355.815126 L556.985471,355.815126 L556.985471,368.92437 L563.446393,368.92437 L563.446393,394.537815 C563.446393,407.042017 569.806363,410.773109 579.19489,410.773109 L579.19489,410.773109 Z M626.94514,411.07563 C636.737475,411.07563 644.006012,407.243697 649.053607,400.991597 L640.270792,393.226891 C636.030812,397.159664 632.295591,398.773109 627.147044,398.773109 C620.282315,398.773109 615.436623,395.142857 613.922345,388.184874 L651.577405,388.184874 C651.678357,386.773109 651.779309,385.361345 651.779309,384.151261 C651.779309,368.823529 643.501253,354.806723 625.430862,354.806723 C609.682365,354.806723 598.678607,367.512605 598.678607,382.941176 L598.678607,383.142857 C598.678607,399.680672 610.691884,411.07563 626.94514,411.07563 L626.94514,411.07563 Z M613.720441,378.605042 C614.931864,371.647059 619.070892,367.109244 625.430862,367.109244 C631.891784,367.109244 635.92986,371.747899 636.838427,378.605042 L613.720441,378.605042 Z M682.165832,410.87395 C693.876253,410.87395 702.860972,405.428571 702.860972,393.428571 L702.860972,393.226891 C702.860972,383.344538 694.078156,379.714286 686.506764,377.193277 C680.651553,375.176471 675.503006,373.764706 675.503006,370.739496 L675.503006,370.537815 C675.503006,368.420168 677.421092,366.806723 681.156313,366.806723 C685.093437,366.806723 690.443888,368.722689 695.794339,371.848739 L701.649549,361.260504 C695.794339,357.327731 688.323898,355.008403 681.459168,355.008403 C670.556363,355.008403 661.672595,361.159664 661.672595,372.151261 L661.672595,372.352941 C661.672595,382.840336 670.253507,386.369748 677.8249,388.588235 C683.781062,390.403361 689.030561,391.512605 689.030561,394.840336 L689.030561,395.042017 C689.030561,397.462185 687.011523,399.07563 682.569639,399.07563 C677.522044,399.07563 671.363978,396.857143 665.508768,392.621849 L658.946894,402.705882 C666.114479,408.352941 674.594439,410.87395 682.165832,410.87395 L682.165832,410.87395 Z" id="apuntes" fill="#043844"></path>
            </g>
            <g id="Stars" opacity="0.704257246" transform="translate(42.000000, 0.000000)" stroke-width="24" stroke-linecap="round" stroke-linejoin="round">
                <use id="Star-1" stroke="#23CEB6" mask="url(#mask-2)" xlink:href="#path-1"></use>
                <use id="Star-1-Copy-20" stroke="#043844" mask="url(#mask-4)" xlink:href="#path-3"></use>
                <use id="Star-1-Copy-15" stroke="#23CEB6" mask="url(#mask-6)" xlink:href="#path-5"></use>
                <use id="Star-1-Copy-22" stroke="#043844" mask="url(#mask-8)" xlink:href="#path-7"></use>
                <use id="Star-1-Copy-16" stroke="#23CEB6" mask="url(#mask-10)" xlink:href="#path-9"></use>
                <use id="Star-1-Copy-17" stroke="#23CEB6" mask="url(#mask-12)" xlink:href="#path-11"></use>
                <use id="Star-1-Copy" stroke="#23CEB6" mask="url(#mask-14)" xlink:href="#path-13"></use>
                <use id="Star-1-Copy-23" stroke="#043844" mask="url(#mask-16)" xlink:href="#path-15"></use>
                <use id="Star-1-Copy-25" stroke="#23CEB6" mask="url(#mask-18)" xlink:href="#path-17"></use>
                <use id="Star-1-Copy-2" stroke="#043844" mask="url(#mask-20)" xlink:href="#path-19"></use>
                <use id="Star-1-Copy-28" stroke="#23CEB6" mask="url(#mask-22)" xlink:href="#path-21"></use>
                <use id="Star-1-Copy-6" stroke="#043844" mask="url(#mask-24)" transform="translate(1326.000000, 679.000000) rotate(-315.000000) translate(-1326.000000, -679.000000) " xlink:href="#path-23"></use>
                <use id="Star-1-Copy-27" stroke="#23CEB6" mask="url(#mask-26)" transform="translate(1203.000000, 832.000000) rotate(-315.000000) translate(-1203.000000, -832.000000) " xlink:href="#path-25"></use>
                <use id="Star-1-Copy-24" stroke="#043844" mask="url(#mask-28)" transform="translate(782.000000, 703.000000) rotate(-315.000000) translate(-782.000000, -703.000000) " xlink:href="#path-27"></use>
                <use id="Star-1-Copy-7" stroke="#23CEB6" mask="url(#mask-30)" transform="translate(1476.000000, 391.000000) rotate(-315.000000) translate(-1476.000000, -391.000000) " xlink:href="#path-29"></use>
                <use id="Star-1-Copy-8" stroke="#043844" mask="url(#mask-32)" transform="translate(1626.000000, 781.000000) rotate(-315.000000) translate(-1626.000000, -781.000000) " xlink:href="#path-31"></use>
                <use id="Star-1-Copy-26" stroke="#23CEB6" mask="url(#mask-34)" transform="translate(426.000000, 853.000000) rotate(-315.000000) translate(-426.000000, -853.000000) " xlink:href="#path-33"></use>
                <use id="Star-1-Copy-12" stroke="#043844" mask="url(#mask-36)" transform="translate(1296.000000, 61.000000) rotate(-315.000000) translate(-1296.000000, -61.000000) " xlink:href="#path-35"></use>
                <use id="Star-1-Copy-21" stroke="#23CEB6" mask="url(#mask-38)" transform="translate(705.000000, 53.000000) rotate(-315.000000) translate(-705.000000, -53.000000) " xlink:href="#path-37"></use>
                <use id="Star-1-Copy-13" stroke="#043844" mask="url(#mask-40)" transform="translate(1656.000000, 241.000000) rotate(-315.000000) translate(-1656.000000, -241.000000) " xlink:href="#path-39"></use>
                <use id="Star-1-Copy-14" stroke="#23CEB6" mask="url(#mask-42)" transform="translate(216.000000, 166.000000) rotate(-315.000000) translate(-216.000000, -166.000000) " xlink:href="#path-41"></use>
                <use id="Star-1-Copy-9" stroke="#043844" mask="url(#mask-44)" transform="translate(336.000000, 631.000000) rotate(-315.000000) translate(-336.000000, -631.000000) " xlink:href="#path-43"></use>
                <use id="Star-1-Copy-19" stroke="#23CEB6" mask="url(#mask-46)" transform="translate(854.000000, 255.000000) rotate(-315.000000) translate(-854.000000, -255.000000) " xlink:href="#path-45"></use>
                <use id="Star-1-Copy-10" stroke="#043844" mask="url(#mask-48)" transform="translate(36.000000, 901.000000) rotate(-315.000000) translate(-36.000000, -901.000000) " xlink:href="#path-47"></use>
                <use id="Star-1-Copy-11" stroke="#23CEB6" mask="url(#mask-50)" transform="translate(156.000000, 421.000000) rotate(-315.000000) translate(-156.000000, -421.000000) " xlink:href="#path-49"></use>
                <use id="Star-1-Copy-18" stroke="#043844" mask="url(#mask-52)" transform="translate(66.000000, 61.000000) rotate(-315.000000) translate(-66.000000, -61.000000) " xlink:href="#path-51"></use>
                <use id="Star-1-Copy-3" stroke="#043844" mask="url(#mask-54)" xlink:href="#path-53"></use>
                <use id="Star-1-Copy-4" stroke="#043844" mask="url(#mask-56)" xlink:href="#path-55"></use>
                <use id="Star-1-Copy-5" stroke="#23CEB6" mask="url(#mask-58)" xlink:href="#path-57"></use>
            </g>
        </g>
    </g>
</svg>